<svg width="24" height="24" viewBox="0 0 24 24" fill="none" xmlns="http://www.w3.org/2000/svg">
<path d="M7.5 4.5L5.25 7.5V18C5.25 18.3978 5.40804 18.7794 5.68934 19.0607C5.97064 19.342 6.35218 19.5 6.75 19.5H17.25C17.6478 19.5 18.0294 19.342 18.3107 19.0607C18.592 18.7794 18.75 18.3978 18.75 18V7.5L16.5 4.5H7.5Z" stroke="#03A62C" stroke-width="1.5" stroke-linecap="round" stroke-linejoin="round"/>
<path d="M5.25 7.5H18.75" stroke="#03A62C" stroke-width="1.5" stroke-linecap="round" stroke-linejoin="round"/>
<path d="M15 10.5C15 11.2956 14.6839 12.0587 14.1213 12.6213C13.5587 13.1839 12.7956 13.5 12 13.5C11.2044 13.5 10.4413 13.1839 9.87868 12.6213C9.31607 12.0587 9 11.2956 9 10.5" stroke="#03A62C" stroke-width="1.5" stroke-linecap="round" stroke-linejoin="round"/>
</svg>
